<?xml version="1.0" standalone="no"?>
<!DOCTYPE svg PUBLIC "-//W3C//DTD SVG 20010904//EN"
 "http://www.w3.org/TR/2001/REC-SVG-20010904/DTD/svg10.dtd">
<svg version="1.0" xmlns="http://www.w3.org/2000/svg"
 width="700.000000pt" height="700.000000pt" viewBox="0 0 700.000000 700.000000"
 preserveAspectRatio="xMidYMid meet">
<metadata>
Created by potrace 1.14, written by Peter Selinger 2001-2017
</metadata>
<g transform="translate(0.000000,700.000000) scale(0.100000,-0.100000)"
fill="#000000" stroke="none">
<path d="M2011 6555 c-84 -24 -140 -74 -190 -171 -20 -38 -21 -56 -22 -335 -1
-180 3 -304 9 -320 6 -15 23 -36 39 -49 35 -27 86 -22 120 12 23 23 23 28 28
302 4 273 5 280 27 303 48 51 92 59 146 28 55 -33 61 -68 63 -362 1 -114 6
-223 11 -240 9 -34 49 -63 87 -63 11 0 36 14 55 31 l36 31 -3 311 -3 312 -28
53 c-34 66 -83 115 -144 143 -62 27 -162 33 -231 14z"/>
<path d="M4877 6560 c-86 -22 -159 -84 -200 -172 -22 -46 -23 -59 -24 -340 -2
-324 1 -344 57 -373 39 -20 79 -13 111 21 26 28 26 25 29 392 l2 183 34 33
c40 39 83 49 122 29 67 -34 72 -59 77 -378 3 -235 8 -264 52 -284 33 -15 50
-14 82 5 54 32 54 34 52 363 -2 300 -2 304 -27 352 -56 111 -143 169 -262 175
-37 2 -84 -1 -105 -6z"/>
<path d="M1367 5964 c-1 -1 -27 -4 -57 -7 -224 -23 -412 -194 -463 -422 -9
-41 -13 -134 -13 -300 l1 -240 2380 1 c2344 2 2930 4 2950 11 7 2 10 88 9 251
-1 203 -4 258 -18 307 -27 93 -75 174 -142 240 -72 71 -151 116 -247 139 -70
18 -220 27 -239 15 -8 -5 -12 -63 -14 -171 -1 -90 -5 -181 -8 -203 -16 -104
-127 -241 -243 -303 -81 -43 -176 -60 -310 -57 -92 2 -119 7 -184 32 -168 66
-280 173 -318 308 -7 22 -14 119 -18 215 -3 96 -7 177 -10 180 -2 2 -397 4
-878 5 l-874 0 -5 -30 c-3 -16 -6 -94 -7 -173 -1 -155 -13 -218 -52 -285 -68
-114 -232 -228 -353 -245 -90 -12 -257 -6 -315 12 -170 54 -306 176 -344 311
-17 60 -24 142 -26 287 0 68 -5 110 -12 115 -9 5 -184 12 -190 7z m2424 -420
c10 -11 23 -34 28 -51 8 -26 5 -37 -16 -66 l-25 -35 -212 2 c-254 4 -232 2
-256 26 -26 26 -26 80 0 113 24 30 51 33 313 31 133 0 150 -2 168 -20z"/>
<path d="M910 4720 l-75 -5 1 -1795 c0 -987 3 -1817 7 -1845 25 -191 178 -367
371 -427 l71 -22 2199 -2 c1788 -1 2212 1 2263 12 174 36 320 159 385 322 l25
63 -2 1844 c0 1015 -5 1848 -9 1852 -8 8 -5115 11 -5236 3z m2365 -204 c342
-23 674 -146 953 -353 72 -53 242 -217 332 -320 l45 -52 75 -6 c194 -16 360
-70 503 -163 89 -58 214 -177 272 -257 177 -249 227 -596 128 -893 -91 -274
-307 -503 -574 -607 -35 -14 -72 -30 -81 -35 -10 -6 -24 -10 -32 -10 -29 0
-67 -45 -110 -130 -165 -329 -422 -586 -760 -760 -157 -81 -335 -144 -481
-169 -33 -6 -71 -13 -85 -16 -118 -24 -523 -24 -660 -1 -14 3 -38 7 -55 9
-247 38 -569 178 -785 341 -185 140 -380 352 -501 546 -126 204 -232 497 -253
700 -7 66 -8 453 -2 495 30 198 96 407 186 587 47 94 171 291 216 345 11 11
35 41 54 64 52 64 196 208 271 271 203 170 459 299 734 368 210 54 347 64 610
46z m-1699 -239 c6 -4 19 -22 28 -42 16 -32 16 -37 1 -70 -9 -19 -22 -39 -29
-44 -11 -9 -245 -16 -389 -12 -63 1 -97 33 -97 89 0 50 30 79 85 84 76 6 390
2 401 -5z m4088 -6 c16 -13 46 -63 46 -76 0 -12 -30 -62 -43 -74 -17 -13 -406
-20 -444 -8 -47 17 -66 116 -27 148 20 16 115 24 300 24 116 0 155 -3 168 -14z
m-4084 -3088 c12 -9 29 -31 37 -50 13 -33 13 -37 -12 -73 -15 -21 -32 -40 -38
-43 -20 -7 -401 -1 -425 7 -25 8 -52 54 -52 88 0 30 26 67 54 78 11 5 110 8
218 8 160 0 200 -3 218 -15z m4063 10 c36 -7 71 -63 62 -102 -3 -15 -18 -40
-33 -54 l-27 -25 -202 3 c-170 2 -207 5 -228 19 -55 36 -56 114 -2 146 28 17
51 19 217 19 103 -1 198 -3 213 -6z"/>
<path d="M2997 4144 c-1 -1 -30 -5 -65 -8 -147 -15 -332 -71 -498 -150 -367
-176 -637 -462 -784 -831 -31 -79 -66 -199 -76 -263 -3 -20 -9 -57 -14 -81
-12 -67 -9 -307 5 -396 49 -300 167 -549 362 -765 239 -265 563 -432 958 -494
86 -14 401 -16 450 -3 11 3 43 8 70 11 68 9 190 41 277 72 95 34 323 151 389
199 85 63 199 217 199 269 0 14 -29 36 -47 36 -4 0 -35 -25 -68 -56 -101 -93
-259 -204 -292 -206 -4 0 -17 -7 -28 -14 -39 -28 -36 -13 7 39 70 81 133 181
204 320 77 150 80 134 -44 255 l-74 72 -183 0 -183 0 5 198 c2 108 8 201 13
206 5 5 26 10 46 12 20 1 40 6 44 11 16 15 21 73 9 96 -16 31 -28 37 -71 37
-21 0 -38 3 -39 8 0 4 -2 98 -3 210 l-3 202 34 0 c50 0 87 40 78 83 -10 44
-25 58 -74 64 -48 7 -48 6 -55 88 -4 33 -8 71 -11 85 -3 14 -8 39 -11 55 -24
136 -64 249 -135 388 -27 53 -48 97 -45 97 14 0 127 -60 172 -90 63 -44 191
-170 288 -287 42 -51 81 -95 87 -99 12 -7 74 39 88 64 7 14 -9 41 -81 131 -49
62 -88 115 -86 117 2 2 20 -7 39 -20 97 -67 195 -127 213 -132 14 -3 36 6 65
28 l44 32 -59 54 c-198 182 -526 321 -824 348 -70 6 -288 12 -293 8z m-117
-223 c-23 -39 -55 -103 -72 -143 -37 -92 -85 -274 -93 -358 -3 -36 -10 -81
-14 -100 l-7 -35 -193 0 -193 0 6 30 c11 55 113 250 174 332 66 89 141 168
215 228 48 38 208 127 216 120 2 -3 -15 -36 -39 -74z m291 42 c119 -137 199
-337 234 -588 3 -22 8 -51 11 -65 l5 -25 -288 0 -288 0 -1 30 c0 28 18 163 29
210 34 145 75 253 129 340 36 58 107 135 124 135 7 0 27 -17 45 -37z m-764
-200 c-30 -38 -70 -94 -90 -125 -46 -72 -122 -230 -138 -285 -14 -50 -25 -52
-92 -24 -68 29 -127 69 -127 87 0 19 166 191 246 255 66 52 231 159 246 159 5
0 -15 -30 -45 -67z m-475 -517 c29 -18 81 -47 116 -65 34 -17 62 -37 62 -44 0
-6 -7 -43 -14 -82 -15 -70 -21 -114 -32 -222 -9 -94 -11 -114 -15 -118 -5 -4
-143 -7 -280 -6 l-76 1 4 33 c18 152 58 305 109 417 35 76 61 120 69 120 3 0
28 -15 57 -34z m631 -115 l128 -1 -6 -207 c-4 -115 -8 -209 -9 -210 -2 -2
-426 -6 -459 -4 -17 1 -18 8 -13 84 8 109 24 231 37 289 l11 47 61 3 c34 2 76
2 92 1 17 -1 88 -2 158 -2z m743 0 l122 -1 0 -210 1 -210 -42 -1 c-36 -1 -461
0 -537 1 l-26 0 1 206 c1 139 4 207 12 212 6 4 87 6 180 5 92 -1 223 -2 289
-2z m-1260 -570 c6 -1 11 -7 11 -13 0 -76 27 -280 47 -367 15 -62 14 -63 -7
-69 -36 -9 -145 -69 -187 -102 l-39 -31 -41 81 c-36 72 -94 227 -106 284 -17
79 -31 203 -24 211 6 8 256 12 346 6z m631 -5 c4 -4 8 -97 9 -207 l1 -199
-216 2 -215 3 -8 35 c-15 64 -26 125 -32 165 -8 53 -16 197 -11 204 5 9 464 5
472 -3z m744 5 c4 -1 7 -93 8 -206 l1 -205 -303 0 -303 0 0 203 1 202 24 5
c19 4 544 5 572 1z m-727 -570 c9 -8 14 -33 15 -72 0 -33 2 -63 5 -67 2 -4 7
-24 10 -44 25 -161 80 -331 142 -440 19 -34 32 -63 29 -66 -8 -8 -113 45 -160
81 -57 43 -187 177 -232 239 -83 113 -211 354 -197 368 13 12 60 15 226 14 97
-1 152 -5 162 -13z m720 -6 c-3 -90 -37 -254 -72 -355 -43 -124 -104 -228
-182 -311 l-41 -44 -36 39 c-66 69 -171 279 -188 374 -3 17 -9 42 -15 56 -5
15 -7 26 -5 26 2 0 1 10 -4 23 -5 13 -12 39 -15 58 -3 19 -10 57 -15 84 -5 28
-7 53 -3 57 11 11 64 13 327 13 243 0 250 -1 249 -20z m558 5 c-3 -15 -21 -58
-52 -120 -124 -254 -342 -486 -526 -558 l-50 -20 48 96 c84 170 126 304 147
472 6 47 13 99 16 115 l5 30 208 0 c175 -1 207 -3 204 -15z m-1786 -92 c53
-139 161 -324 238 -408 64 -70 64 -75 1 -40 -182 101 -290 187 -439 350 l-40
43 36 32 c34 29 151 95 169 95 4 0 20 -33 35 -72z"/>
<path d="M4457 3549 c-241 -59 -450 -239 -542 -467 -152 -376 3 -798 365 -994
296 -160 678 -101 919 141 97 98 159 202 202 341 30 99 34 309 6 410 -72 263
-261 464 -521 552 -81 28 -105 32 -221 34 -101 2 -147 -2 -208 -17z m384 -153
c190 -59 361 -234 421 -431 29 -92 30 -254 3 -335 -57 -174 -186 -321 -350
-400 -155 -75 -304 -82 -485 -23 -174 56 -327 207 -397 392 -20 51 -26 88 -28
168 -6 190 39 310 171 451 62 68 88 87 166 126 131 65 188 77 333 71 66 -2
141 -11 166 -19z"/>
<path d="M4603 3205 c-17 -7 -34 -19 -39 -26 -4 -7 -9 -56 -10 -109 -1 -52 -3
-102 -3 -111 -1 -12 -17 -15 -88 -17 -95 -2 -183 -11 -197 -19 -4 -3 -15 -21
-22 -40 -12 -29 -13 -40 -2 -64 18 -40 52 -49 189 -49 66 0 119 -3 120 -7 0
-5 2 -63 2 -131 l2 -124 29 -20 c36 -27 81 -27 108 -1 21 22 26 58 27 209 l1
71 126 2 c124 2 171 11 186 34 13 20 9 72 -8 95 -23 34 -51 41 -169 43 -58 2
-113 7 -121 13 -10 8 -15 39 -18 114 -2 57 -9 109 -16 117 -21 25 -64 34 -97
20z"/>
</g>
</svg>
